<!--?xml version="1.0" encoding="utf-8"?-->
<!-- Generator: Adobe Illustrator 18.1.1, SVG Export Plug-In . SVG Version: 6.00 Build 0)  -->

<svg version="1.1" id="_x31_0" xmlns="http://www.w3.org/2000/svg" xmlns:xlink="http://www.w3.org/1999/xlink" x="0px" y="0px" viewBox="0 0 512 512" style="width: 16px; height: 16px; opacity: 1;" xml:space="preserve">
<style type="text/css">
	.st0{fill:#374149;}
</style>
<g>
	<path class="st0" d="M256,0C114.617,0,0,114.614,0,256s114.617,256,256,256c141.386,0,256-114.614,256-256S397.386,0,256,0z
		 M346.297,240.242c-0.246,1.023-0.418,2.082-0.418,3.187l7.48,134.703c0,9.77-11.023,17.722-24.598,17.722
		c-13.574,0-24.554-7.953-24.554-17.722h-0.043l7.477-134.703c0-1.106-0.172-2.164-0.414-3.187
		c-20.82-8.692-35.781-32.348-35.781-60.246c0-35.266,29.758-63.855,53.316-63.855c23.555,0,53.317,28.59,53.317,63.855
		C382.078,207.894,367.114,231.55,346.297,240.242z M191.918,122.988c1.313,0.234,2.566,0.649,3.707,1.266
		c0.074,0.039,0.145,0.086,0.223,0.13c1.206,0.687,2.289,1.562,3.202,2.598c0.063,0.066,0.118,0.14,0.176,0.21
		c0.836,0.985,1.504,2.11,2,3.321c0.106,0.262,0.199,0.523,0.29,0.789c0.187,0.57,0.367,1.145,0.472,1.742c0,0.004,0,0.004,0,0.004
		v51.867c0,6.636,5.801,11.972,12.586,11.191c5.738-0.66,9.945-5.754,9.945-11.527V152.45l0.031-6.387v-0.106
		c0.055,0.031,0.11,0.07,0.161,0.102v-10.542c0-6.043,4.179-11.458,10.125-12.547c7.84-1.434,14.738,4.629,14.738,12.222v55.938
		c0,0.133-0.016,0.258-0.024,0.39c0.008,0.254,0.024,0.52,0.024,0.778c0,21.89-12.832,40.922-31.344,49.954
		c-4.469,2.183-7.309,6.714-7.309,11.687l3.11,124.41c0,0.011-0.012,0.023-0.027,0.027c0,9.652-10.859,17.48-24.254,17.48
		c-13.395,0-24.254-7.828-24.254-17.48c-0.012,0-0.023-0.012-0.023-0.027l3.106-124.406c0-5.008-2.895-9.527-7.391-11.726
		c-5.562-2.723-10.609-6.348-14.945-10.684c-10.07-10.07-16.317-23.961-16.317-39.234c0-0.258,0.016-0.523,0.024-0.778
		c-0.008-0.133-0.024-0.258-0.024-0.39v-55.938c0-7.594,6.902-13.656,14.738-12.222c5.946,1.09,10.125,6.504,10.125,12.547v49.398
		c0,6.636,5.801,11.972,12.586,11.191c5.738-0.66,9.945-5.754,9.945-11.527v-49.016c0-6.679,5.11-12.446,11.782-12.785
		c0.734-0.035,1.449,0.007,2.152,0.094C191.481,122.898,191.695,122.95,191.918,122.988z" style="fill: rgb(75, 75, 75);"></path>
</g>
</svg>
